<?xml version="1.0" encoding="iso-8859-1"?>
<!-- Generator: Adobe Illustrator 21.0.0, SVG Export Plug-In . SVG Version: 6.00 Build 0)  -->
<svg xmlns="http://www.w3.org/2000/svg" xmlns:xlink="http://www.w3.org/1999/xlink" version="1.1" id="Capa_1" x="0px" y="0px" viewBox="0 0 511 511" style="enable-background:new 0 0 511 511;" xml:space="preserve" width="512" height="512">
<g>
	<g>
		<g>
			<circle style="fill:#578DD1;" cx="255.5" cy="255.5" r="248"/>
			<path style="fill:#2D71C6;" d="M311.5,471.5c-136.967,0-248-111.033-248-248c0-80.661,38.518-152.316,98.153-197.608     C71.22,62.893,7.5,151.748,7.5,255.5c0,136.967,111.033,248,248,248c56.305,0,108.219-18.776,149.847-50.392     C376.396,464.954,344.715,471.5,311.5,471.5z"/>
		</g>
		<polygon style="fill:#EFEEEE;" points="415.5,199.5 311.5,199.5 311.5,95.5 199.5,95.5 199.5,199.5 95.5,199.5 95.5,311.5     199.5,311.5 199.5,415.5 311.5,415.5 311.5,311.5 415.5,311.5   "/>
		<g>
			<polygon style="fill:#CECDCB;" points="223.5,415.5 223.5,287.5 95.5,287.5 95.5,311.5 199.5,311.5 199.5,415.5    "/>
			<rect x="199.5" y="95.5" style="fill:#CECDCB;" width="24" height="104"/>
			<rect x="311.5" y="287.5" style="fill:#CECDCB;" width="104" height="24"/>
		</g>
	</g>
	<g>
		<path d="M436.166,74.834C387.908,26.576,323.747,0,255.5,0S123.092,26.576,74.834,74.834C26.577,123.092,0,187.253,0,255.5    s26.577,132.408,74.834,180.666C123.092,484.424,187.253,511,255.5,511s132.408-26.576,180.666-74.834    C484.423,387.908,511,323.747,511,255.5S484.423,123.092,436.166,74.834z M255.5,496C122.888,496,15,388.112,15,255.5    S122.888,15,255.5,15S496,122.888,496,255.5S388.112,496,255.5,496z"/>
		<path d="M415.5,192h-23.706c-4.142,0-7.5,3.357-7.5,7.5s3.358,7.5,7.5,7.5H408v97h-96.5c-4.142,0-7.5,3.357-7.5,7.5V408h-97v-96.5    c0-4.143-3.358-7.5-7.5-7.5H103v-97h96.5c4.142,0,7.5-3.357,7.5-7.5V103h97v96.5c0,4.143,3.358,7.5,7.5,7.5h44.294    c4.142,0,7.5-3.357,7.5-7.5s-3.358-7.5-7.5-7.5H319V95.5c0-4.143-3.358-7.5-7.5-7.5h-112c-4.142,0-7.5,3.357-7.5,7.5V192H95.5    c-4.142,0-7.5,3.357-7.5,7.5v112c0,4.143,3.358,7.5,7.5,7.5H192v96.5c0,4.143,3.358,7.5,7.5,7.5h112c4.142,0,7.5-3.357,7.5-7.5    V319h96.5c4.142,0,7.5-3.357,7.5-7.5v-112C423,195.357,419.642,192,415.5,192z"/>
	</g>
</g>















</svg>
